<!-- <svg xmlns="http://www.w3.org/2000/svg" viewBox="0 0 100 100"><path style="text-indent:0;text-transform:none;block-progression:tb" d="M56.375 22.969a3 3 0 0 0-2.781 2.25l-13 48a3.013 3.013 0 1 0 5.812 1.594l13-48a3 3 0 0 0-3.031-3.844zM34.844 30a3 3 0 0 0-1.563.562l-24 17a3 3 0 0 0 0 4.907l24 17a3 3 0 1 0 3.438-4.906L16.187 50.03 36.72 35.47A3 3 0 0 0 34.844 30zm29.906 0a3 3 0 0 0-1.469 5.469L83.813 50.03 63.28 64.563a3 3 0 1 0 3.438 4.906l24-17a3 3 0 0 0 0-4.907l-24-17A3 3 0 0 0 64.75 30z" overflow="visible" fill="#0068ff"/></svg> -->

<!-- <svg xmlns="http://www.w3.org/2000/svg" viewBox="0 0 48 48"><path fill="#2a2927" d="M36 34L33 31.5 39.8 24 33 16.5 36 14 45 24zM13 34L4 24 13 14 16 16.5 9.1 24 16 31.5z"></path><path fill="#fccf0d" d="M21 39L17.2 37.7 27 9 30.8 10.3z"></path></svg> -->


<svg xmlns="http://www.w3.org/2000/svg" viewBox="0 0 48 48"><path fill="#007bff" d="M36 34L33 31.5 39.8 24 33 16.5 36 14 45 24zM13 34L4 24 13 14 16 16.5 9.1 24 16 31.5z"></path><path fill="#37e660" d="M21 39L17.2 37.7 27 9 30.8 10.3z"></path></svg>