<svg xmlns="http://www.w3.org/2000/svg" viewBox="0 0 64 64"><radialGradient id="JmlfR0egthOapM3rD7xMYa" cx="34.417" cy="36.083" r="28.77" gradientTransform="matrix(1 0 0 -1 0 66)" gradientUnits="userSpaceOnUse"><stop offset="0"></stop><stop offset=".219"></stop><stop offset=".644" ></stop><stop offset="1" ></stop></radialGradient><radialGradient id="JmlfR0egthOapM3rD7xMYb" cx="32" cy="32" r="32" gradientUnits="userSpaceOnUse"><stop offset="0"></stop><stop offset=".219" stop-color="#fff"></stop><stop offset=".644" ></stop><stop offset="1" ></stop></radialGradient><linearGradient id="JmlfR0egthOapM3rD7xMYc" x1="32" x2="32" y1="8.575" y2="58.497" gradientUnits="userSpaceOnUse"><stop offset="0" stop-color="#fff"></stop><stop offset=".428" stop-color="#fff"></stop><stop offset="1" stop-color="#fff"></stop></linearGradient><path fill="url(#JmlfR0egthOapM3rD7xMYc)" d="M52,28H36V12c0-2.209-1.791-4-4-4s-4,1.791-4,4v16H12c-2.209,0-4,1.791-4,4	c0,2.209,1.791,4,4,4h16v16c0,2.209,1.791,4,4,4s4-1.791,4-4V36h16c2.209,0,4-1.791,4-4C56,29.791,54.209,28,52,28z"></path></svg>